<svg xmlns="http://www.w3.org/2000/svg" xml:space="preserve" viewBox="0 0 63 88"><path fill="#373635" d="m7.208 18.16 17.514-.006 6.26 15.2.715-.065 6.264-15.163 17.745.195-12.838 27.084 10.24.027v11.642l-15.805.03-6.05 12.761-6.034-12.76-15.938-.03V45.431l10.469-.107z"/><path fill="#9f3a36" d="m28.567 61.938-2.628-5.686 5.304-.015c2.918-.01 5.313-.007 5.324.003.01.01-1.107 2.39-2.483 5.288-1.377 2.898-2.59 5.455-2.696 5.682l-.194.413zM21.15 45.905l-1.259-2.718c-.61-1.32-1.095-2.414-1.077-2.432.018-.018 1.097-.23 2.397-.472l2.364-.44.67.33c.37.18.69.347.712.37.023.024-.109.359-.293.744-.408.854-.456 1.142-.253 1.521.299.556 1.086.727 1.615.35l.23-.166.031.324c.036.374.17.61.446.779.461.284.933.293 1.252.025l.177-.149.03.307c.049.514.47.85 1.066.85a.832.832 0 0 0 .52-.155l.228-.155v.268c0 .708.948 1.208 1.566.826.17-.104.282-.28.58-.904l.37-.775.229.11c.35.17.706.232.944.167.209-.058.395-.25.395-.408 0-.193-.216-.515-.466-.694l-.267-.192.126-.133.125-.133.373.15c.64.26 1.197.108 1.298-.353.048-.216-.1-.51-.388-.775l-.217-.199.13-.13.132-.131.319.132c.641.267 1.029.232 1.231-.11.188-.318.138-.534-.203-.875l-.306-.306.131-.14.131-.139.282.143c.457.232.884.23 1.16-.002.156-.13.188-.202.188-.418a.684.684 0 0 0-.115-.407c-.078-.099.776.303 2.686 1.265 1.54.776 2.812 1.423 2.827 1.439.015.015-.408.943-.94 2.064l-.967 2.037-10.03.015-10.032.015-.148-.32zm20.925-6.172-1.86-.938.474-.004.473-.003 1.477.738c.813.406 1.487.746 1.498.756.02.018-.163.398-.19.392-.007-.002-.85-.425-1.872-.941zm-4.694-5.09-.457-.238 5.01-.003 5.009-.004-.103.244-.102.243-4.45-.003-4.45-.002zm-1.737-.994-.487-.316-1.351-.03-1.35-.031 3.083-7.056 3.083-7.056h7.761c4.269 0 7.762.02 7.762.046 0 .025-1.57 3.358-3.49 7.405l-3.49 7.36-5.517-.003-5.516-.004-.488-.316zm-23.468-7.116a2469.34 2469.34 0 0 1-3.373-7.313c-.013-.04 2.62-.055 7.617-.045l7.638.016 2.913 6.949c1.602 3.822 2.928 6.997 2.947 7.055.033.1-.068.107-1.555.107h-1.59l-.486.244-.485.244-5.136-.002-5.137-.002-3.353-7.253z"/><path fill="#fdfdfd" d="m28.205 63.556-2.986-6.45-7.97-.016-7.968-.016V45.432c0 .114 10.469-.106 10.469-.106-.016-.06-2.845-6.187-6.286-13.619a3742.467 3742.467 0 0 1-6.256-13.548c0-.02 3.94-.029 8.757-.02l8.757.015 3.13 7.468c1.72 4.106 3.144 7.515 3.163 7.573.03.093-.007.107-.277.107-.172 0-.298.024-.28.054.02.03-.036.073-.122.094-.21.053-.567.285-.768.5-.322.345-1.572 2.005-1.554 2.065.032.102.601.451.955.585.786.296 1.215.259 1.835-.16.221-.15.442-.273.49-.273.344 0 1.09.336 3.48 1.57 1.477.763 2.76 1.46 2.852 1.551.352.347.268.885-.16 1.026-.121.04-.324.06-.45.042-.13-.017-1.098-.48-2.256-1.08-1.226-.636-2.104-1.054-2.218-1.059-.17-.007-.19.01-.19.166 0 .167.08.216 1.833 1.128 1.008.524 1.917 1.014 2.02 1.09.234.17.408.523.356.727-.072.29-.3.447-.645.447-.281 0-.468-.08-1.877-.806-.86-.443-1.72-.885-1.91-.981-.39-.199-.6-.183-.6.044 0 .077.049.182.107.234.059.052.767.424 1.574.827 1.504.75 1.793.934 1.949 1.235.186.36.044.736-.312.825-.39.098-.722-.012-2.146-.708-1.292-.63-1.425-.71-1.522-.91-.073-.148-.196-.262-.39-.358-.537-.266-.987-.025-1.37.734-.188.374-.228.418-.37.401-.322-.039-.317-.178.028-.872.227-.456.32-.713.32-.889 0-.763-.83-1.168-1.405-.685-.108.091-.328.436-.516.812-.336.67-.44.777-.644.668-.169-.09-.149-.215.126-.783.333-.69.324-.964-.049-1.363-.295-.316-.868-.274-1.209.09-.103.11-.291.425-.419.702a7.391 7.391 0 0 1-.244.503c-.006 0-.338-.154-.737-.343l-.725-.343-2.408.444c-1.324.244-2.417.452-2.43.461-.011.01.544 1.238 1.235 2.73.69 1.492 1.256 2.728 1.256 2.747 0 .018-2.496.034-5.547.034h-5.547v9.996l7.879.001h7.878l2.621 5.668c1.442 3.118 2.649 5.67 2.682 5.674.034.004 1.27-2.54 2.746-5.653l2.685-5.659 7.815-.016 7.815-.015v-9.996l-10.895-.03c.017-.042 0 0 1.295-2.652 1.96-4.011 2.982-6.275 3.64-7.664.338-.71.637-1.279.665-1.261.028.017.037-.005.02-.048-.016-.044 1.603-3.518 3.598-7.721 1.995-4.203 3.627-7.666 3.627-7.696 0-.031-3.316-.054-7.795-.054h-7.795l-.422.96c-.232.528-1.628 3.723-3.101 7.1l-2.678 6.14-.532.002c-.496 0-.528-.006-.488-.115.025-.063 1.512-3.478 3.305-7.587l3.262-7.472 8.915-.002 8.916-.002-.086.198c-.048.11-2.956 6.242-6.462 13.628a4969.066 4969.066 0 0 0-6.376 13.456l10.24.027v11.642l-7.903.015-7.902.016-2.994 6.31c-1.646 3.47-3.02 6.372-3.055 6.45-.055.124-.442-.678-3.049-6.31zm19.05-29.492c0-.033-.027-.02-.06.03a.366.366 0 0 0-.059.153c0 .033.027.02.06-.03a.366.366 0 0 0 .059-.153zm-21.029-.457.485-.244h1.648c.906 0 1.647-.015 1.647-.033 0-.046-5.786-13.858-5.891-14.063l-.086-.168h-7.655c-6.997 0-7.652.009-7.618.098.1.26 6.707 14.511 6.759 14.577.046.06 1.148.077 5.143.077h5.084zM10.744 51.254v-4.359H51.645V55.612H10.744zm17.71 3.537c.259-.05.652-.18.874-.29l.403-.2.017-1.295.016-1.295H28.36v.638c0 .596-.01.645-.137.726-.326.207-1.144.164-1.63-.084-.595-.303-.953-.982-.9-1.709.093-1.318 1.19-2.191 2.335-1.859l.36.105.292-.326c.7-.778.846-.964.81-1.023-.088-.142-.594-.378-.986-.461-1.249-.265-2.643.134-3.497 1-.698.71-1.002 1.525-1.001 2.688 0 .572.025.768.135 1.064.437 1.18 1.557 2.073 2.908 2.321.576.106.85.106 1.405 0zm5.55-.067c.632-.173 1.138-.757 1.34-1.547.206-.808.025-1.245-.883-2.134-.752-.736-.875-.967-.747-1.396.2-.664.768-.826 1.53-.437l.23.117.222-.562c.122-.309.223-.591.223-.628 0-.036-.172-.122-.381-.191-1.256-.411-2.152-.319-2.81.289-.418.385-.557.758-.558 1.495 0 .556.016.64.182.969.128.253.331.496.687.823.279.255.56.549.626.653.241.383.076 1.076-.304 1.272-.268.138-.71.113-1.13-.066a8.83 8.83 0 0 0-.462-.186c-.072-.022-.16.112-.351.538-.14.313-.255.586-.255.607 0 .02.159.095.351.165.991.358 1.74.424 2.49.22zm-18.018-3.5v-3.597h-1.951v7.193h1.951zm3.306 2.18.016-1.415 1.067 1.412 1.066 1.413.503.003.503.004v-7.193h-1.826l-.017 1.411-.016 1.411-1.067-1.409-1.066-1.409-.503-.002-.503-.001v7.192h1.826zm22.003 1.35c.447-.093 1.24-.487 1.592-.793.942-.818 1.426-2.22 1.176-3.408-.43-2.042-2.415-3.31-4.39-2.806-.685.175-1.156.447-1.688.975-.718.71-1.056 1.528-1.049 2.532.012 1.647 1.095 3.036 2.7 3.468.403.108 1.213.123 1.659.031zm-1.372-1.729a1.878 1.878 0 0 1-1.272-1.814c0-1.287 1.222-2.163 2.493-1.785.392.116.88.546 1.1.968.138.265.161.387.161.83 0 .441-.023.563-.161.829-.205.394-.695.837-1.064.963-.345.117-.94.122-1.257.009zm9.04.975v-.82l-.228-.039c-.827-.139-1.387-.605-1.634-1.36-.213-.652.002-1.438.529-1.93.331-.31.615-.45 1.028-.51l.275-.04v-1.644l-.336.017c-1.367.066-2.685 1.139-3.126 2.543-.198.634-.183 1.48.04 2.134.397 1.17 1.318 2.039 2.482 2.344.249.065.569.12.711.121l.26.004zm-15.996-9.605a1.79 1.79 0 0 1-.35-.167c-.027-.028.034-.249.136-.492.11-.262.17-.49.147-.561-.047-.15-.023-.15.293.009.759.381 1.054.91.675 1.208-.2.158-.503.159-.9.003zm-2.05-1.19c-.065-.08-.045-.164.124-.513l.202-.417.28.12c.356.152.36.157.202.268-.073.051-.204.215-.292.364-.17.292-.365.358-.516.177z"/><path fill="#cdcdcd" d="M27.495 54.839c.044-.018.097-.015.117.004.02.02-.016.035-.08.032-.071-.002-.086-.017-.037-.036zm5.73 0c.044-.018.097-.015.117.004.02.02-.016.035-.08.032-.071-.002-.086-.017-.037-.036zm-19.161-3.616c0-1.995.007-2.81.017-1.813.01.997.01 2.63 0 3.627-.01.997-.017.181-.017-1.814zm34.862 2.774c0-.47.01-.654.022-.41.011.245.011.63 0 .854-.012.225-.022.025-.022-.444zm-14.196.274a.481.481 0 0 1 .14-.122c.017 0-.018.055-.08.122a.481.481 0 0 1-.14.122c-.017 0 .02-.055.08-.122zm8.077-.267c0-.012.048-.06.106-.106.097-.076.1-.074.023.022-.08.102-.13.134-.13.084zm3.65-.144c-.077-.097-.075-.1.022-.023.102.08.134.13.084.13-.013 0-.06-.049-.107-.107zm-8.532-.122-.147-.168.167.148c.093.081.168.157.168.167 0 .048-.05.01-.188-.147zm8.287-.122c-.075-.097-.073-.1.023-.023.102.08.134.13.084.13-.013 0-.06-.049-.107-.107zM26.161 52.7l-.148-.167.168.148c.156.138.195.187.148.187-.011 0-.087-.075-.168-.168zm7.634-.076c0-.084.014-.118.03-.076a.235.235 0 0 1 0 .152c-.016.042-.03.008-.03-.076zm8.036-.03c.079-.084.157-.153.174-.153.017 0-.034.069-.113.153-.079.083-.157.152-.173.152-.017 0 .034-.068.112-.152zm-13.118-.868c.21-.012.54-.012.731 0 .192.012.02.022-.383.022-.402 0-.559-.01-.348-.022zm15.378-.235c.003-.07.018-.085.037-.036.018.044.016.096-.005.116-.02.02-.034-.015-.032-.08zm-5.486-.121c.003-.071.018-.086.037-.037.018.044.016.096-.005.117-.02.02-.034-.016-.032-.08zm-1.697-.148c0-.117.012-.165.028-.106a.5.5 0 0 1 0 .213c-.016.059-.028.01-.028-.107zm-2.46-.167c-.076-.097-.074-.1.023-.023.101.08.134.13.083.13-.012 0-.06-.049-.106-.107zm4.157.01c.003-.071.018-.086.037-.037.018.044.016.097-.005.117-.02.02-.034-.016-.032-.08zm5.486-.122c.003-.071.018-.086.037-.037.018.044.016.097-.005.117-.02.02-.034-.016-.032-.08zm1.22 0c.003-.071.017-.086.036-.037.018.044.016.097-.004.117-.02.02-.035-.016-.032-.08zm-3.455-1.077-.116-.137.137.116c.129.11.165.158.116.158a.678.678 0 0 1-.137-.137zm5.675.015a.481.481 0 0 1 .14-.122c.017 0-.019.055-.08.122a.481.481 0 0 1-.14.122c-.017 0 .019-.055.08-.122zm-19.019-.548a.481.481 0 0 1 .141-.122c.017 0-.019.055-.08.122a.481.481 0 0 1-.14.122c-.017 0 .019-.055.08-.122zm20.414-.854c0-.452.01-.638.021-.411.012.226.012.596 0 .823-.011.226-.02.04-.02-.412zm-5.883.198c-.076-.096-.074-.099.023-.023.101.08.133.13.083.13-.012 0-.06-.048-.106-.107zm-13.952.023c0-.013.048-.06.107-.107.097-.075.099-.073.023.023-.08.102-.13.134-.13.084zm-8.117-1.851c5.643-.009 14.86-.009 20.481 0 5.621.008 1.004.015-10.26.015-11.265 0-15.865-.007-10.221-.015zm-9.087-1.463c1.45-.01 3.822-.01 5.272 0 1.45.009.264.016-2.636.016-2.9 0-4.086-.008-2.636-.016zm20.989-2.124c.002-.07.017-.085.036-.036.018.044.016.096-.004.116-.02.02-.035-.015-.032-.08zm1.625-.065a.235.235 0 0 1 .153 0c.042.017.007.03-.077.03-.083 0-.118-.013-.076-.03zm-4.145-2.134a.235.235 0 0 1 .153 0c.042.017.007.03-.077.03-.083 0-.118-.013-.076-.03zm16.78-6.817c0-.034.027-.102.06-.152.032-.05.059-.064.059-.03a.366.366 0 0 1-.06.151c-.032.05-.059.065-.059.031zm-16.626-.926a.344.344 0 0 1 .183.002c.04.017-.008.03-.108.029-.1-.001-.135-.015-.075-.03z"/><path fill="#bfbfbf" d="M35.874 41.794a.344.344 0 0 1 .183.002c.041.017-.007.03-.108.028-.1 0-.134-.014-.075-.03zm-17.77-7.989c1.417-.01 3.734-.01 5.15 0 1.417.01.258.017-2.575.017-2.832 0-3.991-.008-2.575-.017zm10.683-.482c.5-.044 1.219-.048 1.219-.006 0 .026-.323.041-.716.036-.394-.006-.62-.019-.503-.03zM8.784 19.145c.025-.025 3.473-.04 7.662-.03l7.617.015-7.663.03c-4.214.017-7.641.01-7.616-.015zm33.768-.03c2.157-.01 5.668-.01 7.803 0 2.134.008.37.016-3.922.016-4.29 0-6.037-.007-3.88-.016z"/><path fill="#a0a0a0" d="M27.705 54.839a.5.5 0 0 1 .213 0c.059.015.01.027-.107.027-.117 0-.165-.012-.106-.027zm-10.228-3.585c0-1.978.008-2.779.017-1.779.01 1 .01 2.618 0 3.596-.009.979-.017.16-.017-1.817zm31.048 3.524c.044-.018.097-.015.117.004.02.02-.016.035-.08.032-.071-.002-.086-.017-.037-.036zm-5.536-.957c0-.012.048-.06.107-.106.097-.076.099-.074.023.023-.08.101-.13.133-.13.083zm-10.134-.26a.235.235 0 0 1 .153 0c.042.016.007.03-.076.03-.084 0-.118-.014-.077-.03zm7.56-.43a.675.675 0 0 1 .244 0c.058.016-.004.028-.138.027-.134 0-.182-.013-.106-.028zm-5.033-.475c.001-.1.015-.135.03-.075a.349.349 0 0 1-.002.182c-.017.042-.03-.006-.028-.107zm-.656-1.326-.179-.198.198.179c.11.098.198.187.198.198 0 .047-.05.006-.217-.18zm10.595-.076c0-.134.013-.182.028-.106a.666.666 0 0 1-.001.244c-.016.058-.028-.004-.027-.138zm-1.22-.03c0-.118.012-.166.028-.107a.5.5 0 0 1 0 .213c-.016.059-.028.01-.028-.107zm-20.12-.062c0-.084.014-.118.03-.076a.235.235 0 0 1 0 .152c-.016.042-.03.008-.03-.076zm-3.336-2.042c0-.804.008-1.125.02-.713.01.413.01 1.071-.001 1.463-.01.392-.02.055-.02-.75zm19.8.171a.344.344 0 0 1 .184.003c.04.017-.008.03-.108.028-.1 0-.135-.015-.075-.03zm8.324 0c.044-.017.096-.014.117.005.02.02-.016.035-.08.032-.071-.002-.086-.017-.037-.037zm-23.945-.407c0-.013.048-.06.107-.107.097-.076.099-.073.023.023-.08.102-.13.134-.13.084zm4.085 0c0-.013.048-.06.106-.107.097-.076.1-.073.023.023-.08.102-.13.134-.13.084zm-3.84-.244c0-.013.047-.06.106-.107.097-.075.099-.073.023.023-.08.102-.13.134-.13.084zm2.393-.994a.344.344 0 0 1 .183.002c.041.017-.007.03-.108.028-.1 0-.134-.015-.075-.03zm.395.001a.235.235 0 0 1 .152 0c.042.017.008.031-.076.031-.084 0-.118-.014-.076-.03zm12.317 0c.044-.018.097-.016.117.004.02.02-.016.034-.08.032-.071-.003-.086-.018-.037-.037zm.61 0c.044-.018.096-.016.116.004.02.02-.015.034-.08.032-.07-.003-.085-.018-.036-.037zm7.985 0c.044-.018.096-.016.117.004.02.02-.016.034-.08.032-.071-.003-.086-.018-.037-.037zM12.927 46.24c1.553-.009 4.077-.009 5.608 0 1.532.01.26.017-2.823.017-3.085 0-4.338-.007-2.785-.017zm28.417 0c0-.041 3.885-.04 8.99.001 1.073.009-.51.023-3.52.03-3.009.008-5.47-.006-5.47-.03zm-7.567-2.682c-.076-.096-.073-.099.023-.023.102.08.134.13.084.13-.013 0-.06-.048-.107-.107zm-2.186-.77c0-.012.048-.06.106-.106.097-.076.1-.074.023.023-.08.101-.13.134-.13.084zm3.662-.134c.003-.07.017-.085.037-.037.017.044.015.097-.005.117-.02.02-.035-.016-.032-.08zm-.318-.62c-.075-.096-.073-.099.023-.023.102.08.134.13.084.13-.013 0-.06-.048-.107-.107zm-6.468-2.372a.235.235 0 0 1 .152 0c.042.017.008.031-.076.031-.084 0-.118-.014-.076-.03zm-2.13-.671c.044-.018.097-.016.117.005.02.02-.016.034-.08.032-.071-.003-.086-.017-.037-.037zm6.092-.792a.235.235 0 0 1 .152 0c.042.017.008.031-.076.031-.084 0-.118-.014-.076-.03zm-2.85-4.257c.079-.083.157-.152.174-.152.016 0-.034.069-.113.152-.079.084-.157.153-.174.153-.016 0 .034-.069.113-.153zm-2.39-.624c.279-.011.717-.011.976 0 .258.011.03.02-.506.02s-.748-.009-.47-.02z"/><path fill="#585858" d="M9.249 51.223c0-3.235.007-4.559.016-2.94.01 1.617.01 4.264 0 5.881-.009 1.618-.016.294-.016-2.94zm4.797 4.953c2.168-.009 5.734-.009 7.924 0 2.19.009.416.016-3.942.016-4.359 0-6.15-.007-3.982-.016zm26.49 0c2.154-.009 5.679-.009 7.833 0s.391.016-3.917.016-6.07-.007-3.916-.016zm-29.824-4.953c0-2.43.007-3.425.016-2.21.01 1.216.01 3.205 0 4.42-.009 1.215-.016.22-.016-2.21zm40.962 0c0-2.43.008-3.425.017-2.21.01 1.216.01 3.205 0 4.42-.01 1.215-.017.22-.017-2.21zm-35.734.047-.015-3.58-.93-.018-.93-.018.932-.014c.7-.01.939.006.96.063.017.042.023 1.667.014 3.612l-.017 3.535zm3.289 2.102c-.007-.813.008-1.478.033-1.478s.039.432.03.96c-.03 1.82-.05 1.992-.063.518zm3.172-2.101-.015-3.58-.868-.019-.869-.018.87-.014c.65-.01.878.006.9.063.016.042.022 1.667.013 3.612l-.016 3.535zm4.79 3.507c.043-.018.096-.015.116.004.02.02-.016.035-.08.032-.07-.002-.085-.017-.037-.036zm5.546 0c.044-.018.097-.015.117.004.02.02-.016.035-.08.032-.07-.002-.085-.017-.037-.036zm7.437 0c.044-.018.097-.015.117.004.02.02-.016.035-.08.032-.071-.002-.086-.017-.037-.036zm.606 0a.235.235 0 0 1 .152 0c.042.018.008.032-.076.032-.084 0-.118-.014-.076-.031zm7.924 0a.235.235 0 0 1 .152 0c.042.018.008.032-.076.032-.084 0-.118-.014-.076-.031zm-18.977-1.787c0-.688.009-.969.02-.625.01.343.01.906 0 1.25-.011.343-.02.062-.02-.625zm-4.666.807c-.076-.096-.074-.099.023-.023.101.08.133.13.083.13-.012 0-.06-.048-.106-.107zm-.305-.305c-.076-.096-.074-.098.023-.023.058.046.106.094.106.107 0 .05-.05.018-.13-.084zm12.983 0c-.075-.096-.073-.098.023-.023.06.046.107.094.107.107 0 .05-.05.018-.13-.084zm1.524-.792c-.075-.097-.073-.099.023-.023.059.046.107.094.107.107 0 .05-.05.018-.13-.084zm-5.848-.853-.148-.168.168.148c.156.138.195.187.147.187-.01 0-.086-.075-.167-.167zm3.545-.173c.003-.071.017-.086.036-.037.018.044.016.097-.004.117-.02.02-.035-.016-.032-.08zm-12.974-.178c.001-.134.014-.182.028-.106a.666.666 0 0 1-.001.244c-.015.058-.027-.004-.027-.138zm1.648-.06c0-.168.013-.23.027-.137.014.092.013.23-.001.305-.015.075-.026-.001-.026-.169zm7.172-.138-.21-.229.229.21c.126.116.229.219.229.23 0 .046-.052.002-.248-.211zm9.651-.076c0-.151.012-.213.027-.137a.869.869 0 0 1 0 .274c-.015.075-.027.014-.027-.137zm4.511 0c0-.151.012-.213.027-.137a.869.869 0 0 1 0 .274c-.015.075-.027.014-.027-.137zm-12.912-.503-.24-.26.259.242c.142.132.259.249.259.259 0 .046-.053 0-.278-.241zm2.904.04c.003-.07.017-.085.036-.036.018.044.016.096-.004.117-.02.02-.035-.016-.032-.08zm2.006-.718c0-.013.048-.061.107-.107.097-.076.099-.074.023.023-.08.101-.13.134-.13.084zm-5.359-.135c.003-.07.017-.085.037-.037.017.044.015.097-.005.117-.02.02-.035-.016-.032-.08zm-7.441.013c0-.013.048-.061.106-.107.097-.076.099-.074.023.023-.08.102-.13.134-.13.084zm5.978-.44c.003-.07.017-.085.037-.036.017.044.015.096-.005.116-.02.02-.035-.015-.032-.08zm-4.682-.19a.345.345 0 0 1 .183.004c.041.016-.007.029-.108.028-.1-.001-.134-.015-.075-.03zm13.26.002c.045-.018.097-.016.117.005.02.02-.015.034-.08.032-.07-.003-.085-.018-.036-.037zm-11.966-.264a.481.481 0 0 1 .141-.122c.017 0-.02.055-.08.122a.481.481 0 0 1-.14.122c-.017 0 .018-.055.08-.122zm17.495-.183a.481.481 0 0 1 .14-.121c.017 0-.019.054-.08.121a.481.481 0 0 1-.14.122c-.017 0 .019-.054.08-.122zm-8.443.042c0-.01.09-.1.198-.198l.198-.179-.179.198c-.167.185-.217.226-.217.18zm8.656-.247c0-.013.048-.061.107-.107.096-.076.098-.074.023.023-.08.101-.13.134-.13.084zm-3.665-.145c-.076-.097-.074-.099.023-.023.058.046.106.094.106.107 0 .05-.05.018-.13-.084zm-13.433-.137a.481.481 0 0 1 .14-.122c.017 0-.019.055-.08.122a.481.481 0 0 1-.14.122c-.017 0 .019-.055.08-.122zm4.679-.653c.093-.014.23-.014.305 0 .075.015-.001.026-.169.026-.167 0-.229-.012-.136-.026zm14.297.001c.044-.017.097-.015.117.005.02.02-.016.034-.08.032-.071-.003-.085-.018-.037-.037zm-30.602-.064c.143-.013.363-.012.488 0 .124.014.007.024-.261.024s-.37-.01-.227-.024zm22.675.002a.675.675 0 0 1 .244 0c.058.016-.004.028-.138.027-.134 0-.182-.013-.106-.027zM29.7 41.447c0-.012.048-.06.107-.106.096-.076.098-.074.023.023-.08.101-.13.133-.13.083zm-3.043-.317c.003-.071.017-.086.037-.037.017.044.015.097-.005.117-.02.02-.035-.016-.032-.08zm4.925-.925c-.076-.096-.074-.098.023-.023.059.046.107.094.107.107 0 .05-.05.018-.13-.084zm-4.43-.35c0-.1.015-.134.03-.075a.349.349 0 0 1-.002.183c-.017.041-.03-.007-.028-.108zm1.93.046c-.075-.097-.073-.1.024-.023.101.08.133.13.083.13-.012 0-.06-.049-.106-.107zm-2.194-.67c-.076-.098-.073-.1.023-.024.059.046.107.094.107.107 0 .05-.05.018-.13-.084zm4.016-5.908a.235.235 0 0 1 .152 0c.042.017.008.03-.076.03-.084 0-.118-.013-.076-.03zm.38-.006c0-.025.186-.038.412-.028.723.03.795.054.183.064-.327.006-.594-.01-.594-.036z"/><path fill="#1e1e1e" d="M28.589 56.176c1.483-.01 3.91-.01 5.394 0 1.484.009.27.016-2.697.016s-4.181-.007-2.697-.016zm-2.322-9.936c2.755-.009 7.281-.009 10.058 0s.523.016-5.009.016c-5.531 0-7.803-.007-5.049-.016zm3.946-.579-.116-.137.137.116a.676.676 0 0 1 .137.137c0 .049-.049.013-.158-.116zm-.39-.74c0-.012.048-.06.107-.106.096-.076.098-.074.023.023-.08.102-.13.134-.13.084zm-1.557-.285c-.022-.036-.027-.078-.011-.094s.045.013.065.065c.041.107.006.126-.054.029zm-.927-.343a.5.5 0 0 1 .213 0c.059.015.01.028-.106.028-.118 0-.166-.013-.107-.028zm-2.221-.975c.044-.017.096-.015.117.005.02.02-.016.034-.08.032-.071-.003-.086-.018-.037-.037zm.427 0c.044-.017.096-.015.116.005.02.02-.015.034-.08.032-.07-.003-.085-.018-.036-.037zm.62-.296c0-.007.042-.047.092-.089.074-.061.091-.059.091.013a.09.09 0 0 1-.091.089c-.05 0-.091-.006-.091-.013zm-1.874-.668c0-.134.013-.182.028-.106a.666.666 0 0 1-.001.244c-.015.058-.027-.004-.027-.138zm10.47-.724c0-.013.047-.06.106-.107.097-.075.099-.073.023.023-.08.102-.13.134-.13.084zm1.28-1.402c0-.013.047-.06.106-.107.097-.075.099-.073.023.023-.08.102-.13.134-.13.084zm4.104-1.455c-.015-.025.214-.042.51-.037.551.01.503.035-.125.065-.196.01-.369-.003-.385-.028zm-.062-3.87c1.235-.01 3.237-.01 4.45 0 1.213.008.203.016-2.245.016-2.447 0-3.44-.008-2.205-.017zm-3.23-.519c-.015-.025 2.258-.04 5.05-.031 2.794.007 4.27.021 3.28.03-4.695.042-8.304.042-8.33 0zM33.1 33.318c.377-.011.995-.011 1.372 0 .377.01.068.019-.686.019s-1.063-.009-.686-.02z"/></svg>