<svg xmlns="http://www.w3.org/2000/svg" viewBox="0 0 26.46 4.18"><path d="M3.14 2.74V.92C3.14.3 2.8 0 2.3 0c-.45 0-.81.24-1 .55h-.02V.03h-.02L0 .32l.03.2.5-.02v2.23l-.45.02V3h1.58v-.24l-.38-.02V1.22c0-.47.32-.72.65-.72.27 0 .46.18.46.63v1.6L2 2.77V3h1.57v-.24Zm3.23-.84h-.01a.97.97 0 0 1-.87.59c-.44 0-.93-.33-.94-1.16H6.4c.02-.08.03-.17.03-.26C6.42.44 6.02 0 5.29 0 4.49 0 3.8.53 3.8 1.57c0 1.02.65 1.49 1.4 1.49.53 0 1.08-.25 1.35-1.08zM5.17.3c.3 0 .44.28.4.74h-1c.07-.46.3-.74.6-.74zm1.5 0 .34.01.9 2.7h.42l.54-1.73h.01L9.45 3h.42l.87-2.69h.34V.05h-1.05V.3l.37.01-.53 1.75-.57-2h-.36l-.61 2h-.01L7.8.31h.37V.05h-1.5zm8.58 0V.06h-1.12c-.14-.04-.3-.06-.44-.06-.67 0-1.12.36-1.12.9 0 .33.17.55.42.68-.32.2-.47.45-.47.71 0 .26.14.47.46.57-.27.13-.51.36-.51.67 0 .46.52.65 1.16.65 1.04 0 1.6-.48 1.6-1.13 0-.5-.3-.7-.93-.78l-.92-.12c-.17-.02-.28-.1-.28-.24 0-.08.03-.16.1-.23.16.05.33.07.5.07.66 0 1.12-.36 1.12-.89 0-.2-.06-.36-.17-.47V.38zm-1.52 1.17c-.24 0-.45-.24-.45-.63 0-.32.14-.56.38-.56s.45.24.45.63c0 .32-.14.56-.38.56zm.54 1.57c.28.03.4.15.4.31 0 .26-.28.5-.84.5-.54 0-.8-.22-.8-.52 0-.15.07-.3.18-.43zm3.6-.31c-.03-.15-.04-.3-.04-.5V.9c0-.71-.52-.9-1.05-.9-.66 0-1.24.27-1.24.78 0 .22.12.39.37.39.57 0 .26-.9.82-.9.28 0 .35.23.35.69v.35c-.68.06-1.11.21-1.35.43a.8.8 0 0 0-.25.6c0 .47.32.72.72.72.4 0 .71-.24.87-.55h.01l.03.51L18.28 3v-.24zm-.79-.81c0 .36-.25.61-.5.61-.18 0-.32-.14-.32-.36 0-.28.22-.55.82-.6zm5.97.82V.89c0-.59-.26-.89-.74-.89-.42 0-.78.24-1.01.57h-.02c-.07-.37-.32-.57-.7-.57-.42 0-.8.24-.99.55V.03h-.03l-1.26.3.03.2.49-.02.01.01v2.22l-.45.02V3h1.54v-.24l-.34-.02V1.25c0-.5.28-.75.58-.75.25 0 .4.15.4.55v1.69l-.34.02V3h1.43v-.24l-.33-.02V1.25c0-.5.27-.75.58-.75.24 0 .4.15.4.55v1.69l-.34.02V3h1.54v-.24Zm3.23-.84h-.01a.97.97 0 0 1-.87.59c-.44 0-.93-.33-.94-1.16h1.84c.02-.08.03-.17.03-.26 0-.63-.4-1.07-1.13-1.07-.8 0-1.49.53-1.49 1.57 0 1.02.65 1.49 1.4 1.49.54 0 1.09-.25 1.35-1.08zM25.08.3c.3 0 .44.28.4.74h-1c.07-.46.3-.74.6-.74z" aria-label="new game" font-family="Minipax" font-size="4.94" font-weight="600" style="-inkscape-font-specification:&quot;Minipax Semi-Bold&quot;;text-align:center" text-anchor="middle"/></svg>